<svg viewBox="0 0 16 16" fill="none" xmlns="http://www.w3.org/2000/svg" id="Suitcase-Alt--Streamline-Unicons" height="16" width="16">
  <desc>
    Suitcase Alt Streamline Icon: https://streamlinehq.com
  </desc>
  <path d="M13.488 3.296h-2.352V2.5119999999999996c0 -0.41586666666666666 -0.16519999999999999 -0.8146666666666667 -0.4592666666666666 -1.1087333333333333 -0.29406666666666664 -0.29406666666666664 -0.6928666666666665 -0.4592666666666666 -1.1087333333333333 -0.4592666666666666H6.4319999999999995c-0.41586666666666666 0 -0.8146666666666667 0.16519999999999999 -1.1087333333333333 0.4592666666666666 -0.29406666666666664 0.29406666666666664 -0.4592666666666666 0.6928666666666665 -0.4592666666666666 1.1087333333333333v0.7839999999999999H2.5119999999999996c-0.6237999999999999 0 -1.222 0.24779999999999996 -1.6631333333333331 0.6888666666666667C0.4078 4.426 0.15999999999999998 5.0241999999999996 0.15999999999999998 5.648v7.055999999999999c0 0.6237333333333333 0.24779999999999996 1.222 0.6888666666666667 1.6631333333333331 0.44113333333333327 0.4410666666666666 1.0393333333333332 0.6888666666666667 1.6631333333333331 0.6888666666666667h10.975999999999999c0.6237333333333333 0 1.222 -0.24779999999999996 1.6631333333333331 -0.6888666666666667 0.4410666666666666 -0.44113333333333327 0.6888666666666667 -1.0393999999999999 0.6888666666666667 -1.6631333333333331V5.648c0 -0.6237999999999999 -0.24779999999999996 -1.222 -0.6888666666666667 -1.6631333333333331 -0.44113333333333327 -0.4410666666666666 -1.0393999999999999 -0.6888666666666667 -1.6631333333333331 -0.6888666666666667ZM6.4319999999999995 2.5119999999999996h3.1359999999999997v0.7839999999999999H6.4319999999999995V2.5119999999999996Zm7.84 10.192c0 0.20793333333333333 -0.08259999999999999 0.4074 -0.22959999999999997 0.5544s-0.3464666666666667 0.22959999999999997 -0.5544 0.22959999999999997H2.5119999999999996c-0.20793333333333333 0 -0.4073333333333333 -0.08259999999999999 -0.5544 -0.22959999999999997 -0.147 -0.147 -0.22959999999999997 -0.3464666666666667 -0.22959999999999997 -0.5544v-3.92h3.1359999999999997v0.7839999999999999c0 0.20793333333333333 0.08259999999999999 0.4074 0.22959999999999997 0.5544 0.14706666666666665 0.147 0.3464666666666667 0.22959999999999997 0.5544 0.22959999999999997s0.4073333333333333 -0.08259999999999999 0.5544 -0.22959999999999997c0.147 -0.147 0.22959999999999997 -0.3464666666666667 0.22959999999999997 -0.5544v-0.7839999999999999h3.1359999999999997v0.7839999999999999c0 0.20793333333333333 0.08266666666666667 0.4074 0.22966666666666663 0.5544s0.34639999999999993 0.22959999999999997 0.5543333333333333 0.22959999999999997c0.20793333333333333 0 0.4074 -0.08259999999999999 0.5544 -0.22959999999999997s0.22959999999999997 -0.3464666666666667 0.22959999999999997 -0.5544v-0.7839999999999999h3.1359999999999997v3.92Zm0 -5.4879999999999995H1.728V5.648c0 -0.20793333333333333 0.08259999999999999 -0.4073333333333333 0.22959999999999997 -0.5544 0.14706666666666665 -0.147 0.3464666666666667 -0.22959999999999997 0.5544 -0.22959999999999997h10.975999999999999c0.20793333333333333 0 0.4073333333333333 0.08259999999999999 0.5544 0.22959999999999997 0.147 0.14706666666666665 0.22959999999999997 0.3464666666666667 0.22959999999999997 0.5544v1.5679999999999998Z" fill="#000000" stroke-width="0.6667"></path>
</svg>