<svg viewBox="-0.5 -0.5 16 16" fill="none" xmlns="http://www.w3.org/2000/svg" id="Github--Streamline-Iconoir" height="16" width="16">
  <desc>
    Github Streamline Icon: https://streamlinehq.com
  </desc>
  <path d="M10.4021875 14.337875v-1.959875c0.025625000000000002 -0.32556250000000003 -0.018375 -0.6529375 -0.1290625 -0.96025 -0.11068750000000001 -0.3073125 -0.2855 -0.5875625 -0.5128125 -0.822 2.1441875 -0.2390625 4.3976875 -1.051625 4.3976875 -4.780125 -0.00025 -0.9533750000000001 -0.36693749999999997 -1.87025 -1.0243125 -2.56075 0.31125 -0.834125 0.28925 -1.756125 -0.0615 -2.5744375 0 0 -0.80575 -0.23900000000000002 -2.67 1.0106875 -1.565125 -0.4241875 -3.2149375000000004 -0.4241875 -4.7800625000000005 0C3.757875 0.44143750000000004 2.9520625000000003 0.6804375 2.9520625000000003 0.6804375c-0.35075 0.8183125 -0.37275 1.7403125 -0.0614375 2.5744375 -0.6623125000000001 0.6956249999999999 -1.0294375 1.62075 -1.0243125 2.58125 0 3.701125 2.2535 4.51375 4.3976875 4.7800625000000005 -0.22468749999999998 0.2321875 -0.39793750000000006 0.5090625 -0.5085 0.8125625000000001 -0.110625 0.3035625 -0.1560625 0.627 -0.133375 0.9492499999999999v1.959875" stroke="#000000" stroke-linecap="round" stroke-linejoin="round" stroke-width="1"></path>
  <path d="M5.6221250000000005 12.9720625c-2.048625 0.6645625 -3.7558124999999998 0 -4.780125 -2.048625" stroke="#000000" stroke-linecap="round" stroke-linejoin="round" stroke-width="1"></path>
</svg>