<?xml version="1.0" standalone="no"?><!DOCTYPE svg PUBLIC "-//W3C//DTD SVG 1.1//EN" "http://www.w3.org/Graphics/SVG/1.1/DTD/svg11.dtd"><svg t="1775815694273" class="icon" viewBox="0 0 1024 1024" version="1.1" xmlns="http://www.w3.org/2000/svg" p-id="5026" xmlns:xlink="http://www.w3.org/1999/xlink" width="200" height="200"><path d="M975.7 188.4H868.9v-68c0-26.7-21.7-48.3-48.3-48.3H203.4c-26.7 0-48.3 21.7-48.3 48.3v68H48.3C21.7 188.4 0 210.1 0 236.8V328c0 48.4 17.9 94.6 50.5 130.2 33.4 36.5 78.3 57.3 126.4 58.8 1.9 0.1 3.7 0.1 5.6 0.1 5.2 0 10.5-0.2 15.7-0.7 14.7 27.7 32.9 53.6 54.4 77.1 47.7 52.1 107.8 88 173.8 104.6V893c0 1.3 0.1 2.6 0.3 3.9h-89.1c-15.2 0-27.5 12.3-27.5 27.5s12.3 27.5 27.5 27.5h348.9c15.2 0 27.5-12.3 27.5-27.5s-12.3-27.5-27.5-27.5h-89.1c0.2-1.3 0.3-2.5 0.3-3.9V698.4c14.1-3.5 28.1-7.8 41.8-13.1 44.4-17 84.4-42.3 118.9-75.2 28.7-27.3 52.2-58.7 70.3-93.5 2.4 0.2 4.8 0.3 7.3 0.4 1.9 0.1 3.8 0.1 5.7 0.1 47.7 0 92.6-18.2 127-51.5 35.8-34.7 55.4-81.2 55.4-131.1v-97.7c-0.1-26.7-21.8-48.4-48.4-48.4zM54.9 328v-84.7H155v99c0 41.1 6.7 81.5 19.6 119.6-66.3-4.1-119.7-63.3-119.7-133.9zM543 897h-62c0.2-1.3 0.3-2.5 0.3-3.9V707.4c4.5 0.4 9 0.7 13.5 0.9 5.8 0.3 11.6 0.4 17.4 0.4 10.2 0 20.4-0.4 30.5-1.3V893c0 1.4 0.1 2.7 0.3 4z m177.4-326.6c-29.2 27.9-63.1 49.3-100.6 63.6-16.9 6.5-34.2 11.3-51.8 14.6-1.8 0.1-3.5 0.4-5.2 0.9-21.4 3.6-43.3 5-65.5 3.9-12.5-0.6-24.8-2-37-4.1-0.9-0.2-1.9-0.4-2.9-0.5-62.5-11.7-119.8-43.6-164.4-92.3-53.5-58.5-83-134.6-83-214.2V127h604v224.6c0 42.1-8.5 82.8-25.2 121-16.1 37-39.1 69.8-68.4 97.8z m248.7-235.9c0 34.8-13.8 67.4-38.8 91.7-21.6 20.9-49.1 33.3-78.6 35.6 11.5-35.4 17.3-72.3 17.3-110.2V243.4h100.1v91.1z" fill="" p-id="5027"></path></svg>