<?xml version="1.0" standalone="no"?><!DOCTYPE svg PUBLIC "-//W3C//DTD SVG 1.1//EN" "http://www.w3.org/Graphics/SVG/1.1/DTD/svg11.dtd"><svg t="1775825669823" class="icon" viewBox="0 0 1024 1024" version="1.1" xmlns="http://www.w3.org/2000/svg" p-id="2955" xmlns:xlink="http://www.w3.org/1999/xlink" width="200" height="200"><path d="M97.900291 1023.99928c-25.899982 0.1-50.699964-10.199993-68.899951-28.59998-37.999973-38.199973-37.999973-99.89993 0-138.099903l144.799898-145.099898 78.499945-78.699944c-24.199983-39.599972-41.499971-82.899942-51.299964-128.19991-19.599986-90.299937-8.999994-184.49987 30.399978-267.999812 98.99993-207.499854 347.499756-295.399792 554.99961-196.399862s295.399792 347.499756 196.399862 554.99961c-20.399986 42.69997-47.899966 81.599943-81.299943 114.999919-77.799945 78.399945-183.699871 122.399914-294.199793 122.099914-38.399973 0-76.599946-5.199996-113.49992-15.599989-36.499974-10.299993-71.39995-25.599982-103.699927-45.499968l-78.499945 78.599945-144.699898 144.899898c-18.299987 18.399987-43.09997 28.69998-68.999952 28.59998z m98.599931-243.799829L74.300308 902.699365c-12.999991 13.099991-12.999991 34.199976 0 47.299967 12.999991 12.999991 34.099976 13.099991 47.199967 0.1l0.099999-0.1 122.199915-122.399914-47.299967-47.399967z m93.999934-94.099933l-48.599966 48.699965 47.199967 47.299967 48.599966-48.699966c-4.099997-3.499998-7.999994-6.999995-11.899992-10.499992l-1.599999-1.499999c-4.299997-4.099997-7.899994-7.399995-11.099992-10.699993-3.299998-3.299998-6.499995-6.599995-10.499993-10.899992-0.6-0.7-1.199999-1.299999-1.799999-1.999999l-0.099999-0.1c-3.699997-3.999997-6.999995-7.799995-10.199993-11.499991v-0.1zM607.299933 63.399955c-194.799863 0.6-352.299752 158.999888-351.799753 353.899752 0.2 72.799949 22.899984 143.799899 65.099955 203.099857 5.299996 7.499995 10.999992 14.79999 16.799988 21.799984l1.199999 1.399999c2.799998 3.399998 5.799996 6.799995 8.899994 10.099993 0.4 0.4 0.799999 0.899999 1.199999 1.299999l0.3 0.3c3.499998 3.799997 6.599995 6.999995 9.499993 9.899993 3.199998 3.199998 6.499995 6.299996 10.199993 9.799993l1.099999 1.1c3.599997 3.299998 7.199995 6.499995 10.699992 9.499993l0.4 0.3c7.599995 6.399996 15.599989 12.599991 23.699984 18.299987 0.1 0.1 0.3 0.2 0.399999 0.3l0.3 0.2c159.299888 111.599922 378.799734 72.899949 490.399655-86.39994 41.499971-59.299958 63.799955-129.999909 63.699955-202.399857 0.5-194.199863-156.59989-351.999753-350.799753-352.499753h-1.299999z m0 628.199559c-151.999893 0-275.299806-123.299913-275.299806-275.399807v-4.999996c0.3-17.499988 14.49999-31.499978 31.999977-31.599978h0.6c17.699988 0.3 31.799978 14.999989 31.499977 32.699977-1.399999 116.499918 91.799935 212.099851 208.299854 213.49985 116.499918 1.399999 212.099851-91.799935 213.49985-208.299854 1.099999-86.199939-50.399965-164.399884-130.099909-197.399861-25.399982-10.499993-52.599963-15.999989-80.099943-15.899989-16.299989 0-32.599977 1.899999-48.499966 5.599996-11.599992 2.699998-22.899984 6.399996-33.899976 10.999993-16.399988 6.899995-35.199975-0.899999-41.999971-17.199988-6.899995-16.399988 0.899999-35.199975 17.199988-41.999971 14.29999-5.999996 29.09998-10.799992 44.199969-14.29999 20.699985-4.799997 41.799971-7.299995 63.099956-7.299994 35.799975 0 71.29995 6.999995 104.399926 20.799985 140.899901 57.999959 208.099854 219.199846 150.099895 359.999747-42.39997 103.299927-143.199899 170.79988-254.999821 170.79988z m-171.999879-415.899708c-8.499994 0-16.699988-3.399998-22.699984-9.399993-12.499991-12.599991-12.499991-32.899977 0-45.399968s32.799977-12.499991 45.299968 0c12.499991 12.599991 12.499991 32.899977 0 45.399968-5.899996 5.999996-13.99999 9.399993-22.599984 9.399993z" fill="#333333" p-id="2956"></path></svg>