<?xml version="1.0" standalone="no"?><!DOCTYPE svg PUBLIC "-//W3C//DTD SVG 1.1//EN" "http://www.w3.org/Graphics/SVG/1.1/DTD/svg11.dtd"><svg t="1775815764548" class="icon" viewBox="0 0 1024 1024" version="1.1" xmlns="http://www.w3.org/2000/svg" p-id="6409" xmlns:xlink="http://www.w3.org/1999/xlink" width="200" height="200"><path d="M694.268995 318.427631l60.551002-119.358033a31.015489 31.015489 0 0 0-13.647775-41.719312l-7.927869-4.023933 32.375466-63.774949a31.039488 31.039488 0 0 0-13.615775-41.719312L664.517486 3.368824a31.231485 31.231485 0 0 0-23.711609-1.847969 31.143487 31.143487 0 0 0-18.039703 15.463745L590.350708 80.815548l-14.703757-7.463877a30.887491 30.887491 0 0 0-23.67961-1.82397 30.895491 30.895491 0 0 0-18.023703 15.463745l-152.701483 300.955039a31.039488 31.039488 0 0 0 13.639776 41.719312l165.541271 83.966616a31.023489 31.023489 0 0 0 41.727312-13.647775l63.790948-125.733927c80.69467 53.639116 122.405982 151.765498 102.470311 248.587902-26.71956 129.901859-154.133459 213.748476-284.075317 187.124915-101.190332-20.831657-177.605072-105.350263-190.172865-206.076603l186.052933 98.966369a31.015489 31.015489 0 0 0 41.991308-12.831789 31.039488 31.039488 0 0 0-12.823789-41.991307L234.17258 501.656611a30.983489 30.983489 0 0 0-41.999308 12.831788 31.055488 31.055488 0 0 0 12.823789 41.983308l26.215568 13.94377a30.511497 30.511497 0 0 0-1.015984 7.831871c1.327978 109.014203 62.350972 207.196584 153.829465 259.355725l-41.663314 146.901578a31.015489 31.015489 0 0 0 5.095916 27.167552 30.983489 30.983489 0 0 0 24.775592 12.343797H709.676741a31.071488 31.071488 0 0 0 24.775592-12.311797c5.847904-7.767872 7.759872-17.831706 5.095916-27.191552l-43.391285-153.101476c-0.199997-0.719988-0.551991-1.343978-0.807986-2.031967 66.630902-42.4873 116.750075-110.718175 133.885793-194.004802 25.591578-124.261952-29.391515-250.427872-134.965776-316.946775zM664.069493 72.80768l32.14347 16.311731-16.519727 32.535464-32.14347-16.319731 16.519727-32.527464zM560.823195 444.225557l-110.142184-55.879079 124.581946-245.547952 110.166184 55.887079-124.605946 245.539952z m107.758224 517.671467H413.321627l28.111536-99.142366c9.919836 3.167948 20.04767 5.887903 30.415499 8.023868 20.471663 4.207931 40.871326 6.239897 61.038994 6.239897a300.747042 300.747042 0 0 0 106.15025-19.471679l29.543513 104.35028z" fill="#838384" p-id="6410"></path></svg>